<svg xmlns="http://www.w3.org/2000/svg" viewBox="0 0 569 232"><defs><style>.cls-1{fill:none;}.cls-2{fill:#020202;}</style></defs><title>Ресурс 2</title><g id="Слой_2" data-name="Слой 2"><g id="Слой_1-2" data-name="Слой 1"><path class="cls-1" d="M505,232H277c9.16-1.8,17.39-5.2,23.29-14.88.44,4.93.74,8.31,1.05,11.7H328.7V125.57c-8.73,0-17.17-.12-25.61.16-.95,0-2.52,2.26-2.6,3.55-.32,4.72-.13,9.47-.13,15.06l-55.84-28.23c4.31-2.7,8-4.86,11.5-7.25C274,96.68,284.86,80,286.81,58.25,289.17,31.94,274,11.09,247.45,3.18,242.73,1.78,237.81,1,233,0H569V232H516c8.93-1.86,17.53-4.37,23.49-13,.8,4.16,1.36,7,1.91,9.92h26.52V83.2H539.85v47.88c-.88-.1-1.27,0-1.5-.19-17.39-12.64-42.86-9.82-57.36,6.33-8.85,9.86-12.49,21.79-13.6,34.61-1.17,13.66.72,26.87,7.25,39.13S491.81,229.41,505,232ZM355,125.78v103h28.06c0-17.4-.07-34.38,0-51.36a120.06,120.06,0,0,1,.94-15.41c1.5-10.94,8.47-16.43,19.74-16,9.67.36,15,5.86,15.28,17.17.42,20,.23,40,.29,60,0,1.9,0,3.8,0,5.72h28.27a19.9,19.9,0,0,0,.27-2.22c-.26-24.14.1-48.31-1-72.4-.67-14.28-7.82-25.7-22.58-29.61-15-4-28.76-1.71-39.1,11.37a10.74,10.74,0,0,1-1.75,1.39c-.54-4.14-1-7.82-1.53-11.65Z"/><path class="cls-1" d="M160,232H62a4.41,4.41,0,0,1,1.29-.7C79.72,229,90.19,219.18,96.5,204.48c6.09-14.18,7-29.06,4.17-44-2.28-12.23-7.38-23.11-18-30.57-8.12-5.72-17.34-7.48-27-6.71-9.84.78-18.71,4-25.79,13.24V83.33H1.31v145.9H21.09c7.29,0,7.28,0,8.18-7.36,0-.24.41-.44,1.24-1.29C35.18,228.22,43,230.23,51,232H0V0H225a13.44,13.44,0,0,1-2.78.84,70.53,70.53,0,0,0-27.8,8.85c-30.8,16.9-28.82,51.81-14.93,70.42,10.66,14.3,24.66,24.61,39.87,33.5,1.46.86,2.89,1.76,4.85,3-8.69,4.84-16.63,9.36-24.7,13.63a6.52,6.52,0,0,1-4.53,0c-6.92-2.16-13.62-5.74-20.67-6.62-22.36-2.8-47,5.94-55.93,33.76-3.15,9.8-3.48,19.87-2.4,30.12,2.1,19.86,15.33,36.52,34,42.07C153.25,230.54,156.64,231.19,160,232Z"/><path d="M160,232c-3.34-.81-6.73-1.46-10-2.44-18.66-5.55-31.89-22.21-34-42.07-1.08-10.25-.75-20.32,2.4-30.12,9-27.82,33.57-36.56,55.93-33.76,7.05.88,13.75,4.46,20.67,6.62a6.52,6.52,0,0,0,4.53,0c8.07-4.27,16-8.79,24.7-13.63-2-1.2-3.39-2.1-4.85-3-15.21-8.89-29.21-19.2-39.87-33.5C165.58,61.5,163.6,26.59,194.4,9.69A70.53,70.53,0,0,1,222.2.84,13.44,13.44,0,0,0,225,0h8c4.82,1,9.74,1.78,14.46,3.18,26.59,7.91,41.72,28.76,39.36,55.07C284.86,80,274,96.68,256,108.86c-3.52,2.39-7.19,4.55-11.5,7.25l55.84,28.23c0-5.59-.19-10.34.13-15.06.08-1.29,1.65-3.51,2.6-3.55,8.44-.28,16.88-.16,25.61-.16V228.82H301.33c-.31-3.39-.61-6.77-1.05-11.7C294.38,226.8,286.15,230.2,277,232H266c-.25-.22-.47-.59-.73-.62-18.72-2.4-27.64-16.4-28.08-34.33-.55-22.64-.22-45.3-.13-67.94,0-1.59,1.12-3.18,2-5.62-2-.2-4.73-1.37-6.43-.5-9.28,4.79-18.31,10.08-27.72,15.36,12.26,15.39,15.2,32.82,11.93,51.43-3.46,19.76-14.29,33.62-33.88,39.77-3.27,1-6.67,1.64-10,2.45ZM277.14,59.89C277.52,40,272.41,28.68,262,21.17,242.13,6.85,221.21,6.51,200,17.6c-22.14,11.56-27.38,38.73-11.77,58.29,10.7,13.41,24.52,22.75,39.08,31.36,4.92,2.91,8.72,3.52,13.34-.1,3.38-2.65,7.43-4.43,11-6.9C267.63,89.08,276.53,73.89,277.14,59.89ZM265.9,137.73c0,19.07-.41,37.46.16,55.82.3,9.69,6.18,14.76,15.15,15.22,9.54.49,16.17-4.14,17.69-13.82,1.24-7.82.34-16,1.61-23.79,2-12.5-2.56-19.69-14.57-23.58C279,145.33,272.66,141.14,265.9,137.73ZM190,177.92c-.7-8.46-1.64-16.43-6-23.71-1.39-2.28-2.71-2.89-5.21-1.48-10.58,5.92-21.28,11.62-31.85,17.57a5.64,5.64,0,0,0-2.69,3.68c-.49,8.39.4,16.61,4.3,24.24s10.43,11.64,18.94,11.46c9.05-.19,15.61-4.92,18.5-13.46C187.94,190.34,188.69,184,190,177.92Zm-19.71-31.43c-9.39-3.11-21,3.33-21.59,11.84Z"/><path class="cls-2" d="M51,232c-8-1.77-15.8-3.78-20.47-11.42-.83.85-1.21,1-1.24,1.29-.9,7.36-.89,7.36-8.18,7.36H1.31V83.33H29.89v53.06c7.08-9.25,16-12.46,25.79-13.24,9.67-.77,18.89,1,27,6.71,10.6,7.46,15.7,18.34,18,30.57,2.79,15,1.92,29.87-4.17,44C90.19,219.18,79.72,229,63.27,231.3A4.41,4.41,0,0,0,62,232Zm22.1-55.6,1.27-.34c-1.79-6.64-2.8-13.62-5.55-19.83-3.64-8.21-11.17-10.79-19.88-10.31-7.77.42-14.19,3.36-17,10.88-5,13.51-5.6,27.42,0,40.83,5.95,14.19,25.88,15.94,34.81,3.42C72,193.67,73.27,185.2,73.08,176.4Z"/><path class="cls-2" d="M505,232c-13.19-2.59-23.87-8.85-30.36-21s-8.42-25.47-7.25-39.13c1.11-12.82,4.75-24.75,13.6-34.61,14.5-16.15,40-19,57.36-6.33.23.16.62.09,1.5.19V83.2h28.07V228.88H541.4c-.55-2.87-1.11-5.76-1.91-9.92-6,8.67-14.56,11.18-23.49,13Zm36.47-53.46c-.55-5.92-.79-10.57-1.44-15.16-1.43-9.95-6.66-15.7-15.33-17.22-11-1.91-20.2,1.94-24.3,11.24a49.23,49.23,0,0,0-.21,40.15c3.64,8.65,11.42,12.3,21.77,11.39,8.57-.75,14.69-5.58,17-14.44C540.39,188.94,540.78,183.1,541.47,178.54Z"/><path class="cls-1" d="M173,232c3.34-.81,6.74-1.42,10-2.45,19.59-6.15,30.42-20,33.88-39.77,3.27-18.61.33-36-11.93-51.43,9.41-5.28,18.44-10.57,27.72-15.36,1.7-.87,4.45.3,6.43.5-.92,2.44-2,4-2,5.62-.09,22.64-.42,45.3.13,67.94.44,17.93,9.36,31.93,28.08,34.33.26,0,.48.4.73.62Z"/><path d="M355,125.78H381.9c.51,3.83,1,7.51,1.53,11.65a10.74,10.74,0,0,0,1.75-1.39c10.34-13.08,24.12-15.33,39.1-11.37,14.76,3.91,21.91,15.33,22.58,29.61,1.14,24.09.78,48.26,1,72.4a19.9,19.9,0,0,1-.27,2.22H419.36c0-1.92,0-3.82,0-5.72-.06-20,.13-40-.29-60-.23-11.31-5.61-16.81-15.28-17.17-11.27-.42-18.24,5.07-19.74,16a120.06,120.06,0,0,0-.94,15.41c-.11,17,0,34,0,51.36H355Z"/><path class="cls-1" d="M277.14,59.89c-.61,14-9.51,29.19-25.53,40.36-3.54,2.47-7.59,4.25-11,6.9-4.62,3.62-8.42,3-13.34.1-14.56-8.61-28.38-18-39.08-31.36C172.61,56.33,177.85,29.16,200,17.6c21.22-11.09,42.14-10.75,62,3.57C272.41,28.68,277.52,40,277.14,59.89Z"/><path class="cls-1" d="M265.9,137.73c6.76,3.41,13.09,7.6,20,9.85,12,3.89,16.61,11.08,14.57,23.58-1.27,7.81-.37,16-1.61,23.79-1.52,9.68-8.15,14.31-17.69,13.82-9-.46-14.85-5.53-15.15-15.22C265.49,175.19,265.9,156.8,265.9,137.73Z"/><path class="cls-1" d="M190,177.92c-1.3,6.11-2.05,12.42-4,18.3-2.89,8.54-9.45,13.27-18.5,13.46-8.51.18-15-3.75-18.94-11.46s-4.79-15.85-4.3-24.24a5.64,5.64,0,0,1,2.69-3.68c10.57-6,21.27-11.65,31.85-17.57,2.5-1.41,3.82-.8,5.21,1.48C188.35,161.49,189.29,169.46,190,177.92Z"/><path class="cls-1" d="M170.28,146.49l-21.59,11.84C149.32,149.82,160.89,143.38,170.28,146.49Z"/><path class="cls-1" d="M541.47,178.54c-.69,4.56-1.08,10.4-2.53,16-2.29,8.86-8.41,13.69-17,14.44-10.35.91-18.13-2.74-21.77-11.39a49.23,49.23,0,0,1,.21-40.15c4.1-9.3,13.32-13.15,24.3-11.24,8.67,1.52,13.9,7.27,15.33,17.22C540.68,168,540.92,172.62,541.47,178.54Z"/></g></g></svg>